<svg xmlns="http://www.w3.org/2000/svg" data-name="Layer 1" viewBox="0 0 1000 1000"><path d="M458.57,857.88a374.62,374.62,0,0,1-158-714.26,16,16,0,1,1,13.51,29C193.75,228.69,116,350.64,116,483.31c0,188.89,153.68,342.57,342.57,342.57,109.43,0,209.69-50.43,275.06-138.36a16,16,0,0,1,25.68,19.09,377.71,377.71,0,0,1-129.76,110A370.5,370.5,0,0,1,458.57,857.88Z"/><path d="M595.25,746.42A374.59,374.59,0,0,1,294.48,148.57a16,16,0,1,1,25.68,19.1,339.81,339.81,0,0,0-67.48,204.18c0,188.89,153.68,342.57,342.57,342.57a339.94,339.94,0,0,0,143.89-31.57,16,16,0,1,1,14.05,28.75A371.54,371.54,0,0,1,595.25,746.42Z"/><path d="M637.16 436.56a16 16 0 01-7.44-1.84l-75-39.42-75 39.42a16 16 0 01-23.21-16.86l14.32-83.5-60.67-59.14a16 16 0 018.87-27.29l83.84-12.18 37.49-76a16 16 0 0128.7 0l37.49 76 83.84 12.18a16 16 0 018.87 27.29l-60.67 59.14 14.32 83.5a16 16 0 01-15.77 18.7zm-82.43-75.34a16.07 16.07 0 017.45 1.84l53.73 28.25-10.26-59.83a16 16 0 014.6-14.17l43.48-42.37-60.08-8.73a16 16 0 01-12-8.76L554.73 203l-26.87 54.44a16 16 0 01-12 8.76l-60.09 8.73 43.48 42.37a16 16 0 014.6 14.17l-10.26 59.83 53.74-28.25A16 16 0 01554.73 361.22zM717.9 631a16 16 0 01-15.77-18.7L714 543.16l-50.25-49a16 16 0 018.87-27.29l69.44-10.09 31.06-62.92a16 16 0 0128.69 0l31.06 62.92 69.44 10.09a16 16 0 018.87 27.29l-50.25 49 11.86 69.16a16 16 0 01-23.21 16.87l-62.12-32.66-62.11 32.66A16 16 0 01717.9 631zm-8.61-137.13l33.06 32.22a16 16 0 014.6 14.16l-7.8 45.51L780 564.29a16 16 0 0114.89 0l40.86 21.49L828 540.27a16 16 0 014.6-14.16l33.06-32.22-45.69-6.64a16 16 0 01-12-8.75l-20.43-41.4L767 478.5a16 16 0 01-12 8.75z"/></svg>